<?xml version="1.0" encoding="UTF-8" standalone="no"?> <svg width="64" height="64" viewBox="0 0 64 64" fill="none" xmlns="http://www.w3.org/2000/svg">
<path d="M55.27 24.55C51.4508 20.7329 46.2797 18.5768 40.88 18.55H19L22.64 14.91C23.0373 14.5121 23.3523 14.0399 23.567 13.5203C23.7817 13.0006 23.892 12.4438 23.8915 11.8815C23.8911 11.3193 23.7799 10.7626 23.5643 10.2433C23.3487 9.72403 23.0329 9.2523 22.635 8.85505C22.2371 8.4578 21.7649 8.14281 21.2452 7.92808C20.7256 7.71334 20.1687 7.60305 19.6065 7.60352C19.0442 7.60398 18.4876 7.71519 17.9683 7.93078C17.449 8.14638 16.9773 8.46214 16.58 8.86005L3.29002 22.1C3.10527 22.2863 3.00112 22.5377 3.00002 22.8C2.99926 22.9317 3.02448 23.0621 3.07425 23.184C3.12401 23.3058 3.19734 23.4166 3.29002 23.51L16.57 36.78C17.3743 37.5824 18.4639 38.0331 19.6 38.0331C20.7361 38.0331 21.8258 37.5824 22.63 36.78C23.43 35.9745 23.8789 34.8853 23.8789 33.75C23.8789 32.6148 23.43 31.5256 22.63 30.72L19 27.09H41.38C44.2571 27.1766 46.9873 28.3802 48.9918 30.4459C50.9962 32.5115 52.1173 35.2767 52.1173 38.155C52.1173 41.0334 50.9962 43.7986 48.9918 45.8642C46.9873 47.9299 44.2571 49.1336 41.38 49.2201H34.94C33.8394 49.2732 32.8014 49.7479 32.0412 50.5457C31.2811 51.3434 30.8571 52.4031 30.8571 53.5051C30.8571 54.607 31.2811 55.6667 32.0412 56.4644C32.8014 57.2622 33.8394 57.7369 34.94 57.7901H41.38C46.574 57.7927 51.5569 55.7347 55.2352 52.0676C58.9135 48.4006 60.9868 43.424 61 38.23C60.9981 35.684 60.4906 33.1637 59.507 30.8154C58.5233 28.4671 57.0832 26.3374 55.27 24.55V24.55Z" fill="#FFE17D"/>
<path d="M19 27.09H30.66V18.52H19L22.64 14.88C23.0373 14.4821 23.3523 14.0099 23.567 13.4902C23.7817 12.9706 23.892 12.4137 23.8915 11.8515C23.8911 11.2892 23.7799 10.7326 23.5643 10.2133C23.3487 9.694 23.0329 9.22227 22.635 8.82502C22.2371 8.42777 21.7649 8.11279 21.2452 7.89805C20.7256 7.68331 20.1687 7.57302 19.6065 7.57349C19.0442 7.57395 18.4876 7.68516 17.9683 7.90075C17.449 8.11635 16.9773 8.43211 16.58 8.83002L3.29002 22.1C3.10527 22.2863 3.00112 22.5377 3.00002 22.8C2.99926 22.9316 3.02448 23.0621 3.07425 23.1839C3.12401 23.3058 3.19734 23.4166 3.29002 23.51L16.57 36.78C17.3743 37.5824 18.4639 38.033 19.6 38.033C20.7361 38.033 21.8258 37.5824 22.63 36.78C23.43 35.9745 23.8789 34.8853 23.8789 33.75C23.8789 32.6148 23.43 31.5256 22.63 30.72L19 27.09Z" fill="#F8B64C"/>
<path d="M41.38 57.79H34.94C33.8394 57.7368 32.8014 57.2622 32.0412 56.4644C31.2811 55.6666 30.8571 54.607 30.8571 53.505C30.8571 52.4031 31.2811 51.3434 32.0412 50.5456C32.8014 49.7479 33.8394 49.2732 34.94 49.22H41.38C44.2571 49.1335 46.9873 47.9298 48.9918 45.8642C50.9962 43.7985 52.1173 41.0334 52.1173 38.155C52.1173 35.2767 50.9962 32.5115 48.9918 30.4459C46.9873 28.3802 44.2571 27.1765 41.38 27.09H19L22.64 30.72C23.3811 31.5358 23.7798 32.6056 23.7534 33.7075C23.7269 34.8093 23.2774 35.8587 22.4981 36.6381C21.7187 37.4174 20.6693 37.8669 19.5675 37.8934C18.4656 37.9198 17.3958 37.5211 16.58 36.78L3.29002 23.51C3.19734 23.4166 3.12401 23.3058 3.07425 23.1839C3.02448 23.0621 2.99926 22.9316 3.00002 22.8C3.00112 22.5377 3.10527 22.2863 3.29002 22.1L16.57 8.83002C17.3723 8.02641 18.4609 7.57443 19.5965 7.57349C20.732 7.57255 21.8214 8.02274 22.625 8.82502C23.4286 9.6273 23.8806 10.716 23.8815 11.8515C23.8825 12.987 23.4323 14.0764 22.63 14.88L19 18.52H40.88C46.2797 18.5468 51.4508 20.7029 55.27 24.52C57.0868 26.3109 58.529 28.4454 59.5127 30.7992C60.4965 33.153 61.0021 35.679 61 38.23C60.9868 43.424 58.9135 48.4005 55.2352 52.0676C51.5569 55.7347 46.574 57.7927 41.38 57.79V57.79ZM34.94 51.22C34.3601 51.2584 33.8165 51.5158 33.4194 51.9401C33.0222 52.3644 32.8013 52.9239 32.8013 53.505C32.8013 54.0862 33.0222 54.6456 33.4194 55.0699C33.8165 55.4942 34.3601 55.7516 34.94 55.79H41.38C46.0445 55.79 50.5186 53.9405 53.8216 50.6469C57.1246 47.3533 58.9868 42.8845 59 38.22C58.9924 35.9438 58.5333 33.6917 57.6493 31.5941C56.7653 29.4965 55.4739 27.5951 53.85 26C50.4059 22.5398 45.732 20.584 40.85 20.56H16.58C16.3826 20.559 16.1899 20.4996 16.0262 20.3893C15.8624 20.279 15.735 20.1226 15.66 19.94C15.5834 19.7579 15.5625 19.5572 15.5999 19.3632C15.6373 19.1692 15.7313 18.9906 15.87 18.85L21.21 13.51C21.4247 13.2992 21.5958 13.0483 21.7135 12.7714C21.8312 12.4945 21.8933 12.1971 21.896 11.8962C21.8988 11.5954 21.8423 11.2969 21.7298 11.0179C21.6172 10.7389 21.4508 10.4847 21.24 10.27C21.0292 10.0553 20.7782 9.88421 20.5014 9.76651C20.2245 9.6488 19.9271 9.58678 19.6262 9.58399C19.3254 9.58121 19.0269 9.63771 18.7479 9.75027C18.4689 9.86283 18.2147 10.0292 18 10.24L5.41002 22.8L18 35.37C18.4283 35.797 19.0087 36.0364 19.6136 36.0354C20.2184 36.0345 20.798 35.7933 21.225 35.365C21.652 34.9367 21.8914 34.3563 21.8904 33.7515C21.8895 33.1467 21.6483 32.567 21.22 32.14L15.88 26.79C15.7424 26.6496 15.6492 26.4718 15.6121 26.2788C15.575 26.0857 15.5956 25.886 15.6714 25.7046C15.7472 25.5232 15.8747 25.3682 16.0381 25.2589C16.2015 25.1496 16.3934 25.0908 16.59 25.09H41.39C43.1361 25.0417 44.8743 25.3439 46.5016 25.9788C48.129 26.6136 49.6125 27.5682 50.8647 28.7862C52.1168 30.0042 53.1121 31.4608 53.7917 33.07C54.4713 34.6791 54.8215 36.4082 54.8215 38.155C54.8215 39.9018 54.4713 41.6309 53.7917 43.2401C53.1121 44.8492 52.1168 46.3059 50.8647 47.5238C49.6125 48.7418 48.129 49.6964 46.5016 50.3313C44.8743 50.9661 43.1361 51.2683 41.39 51.22H34.94Z" fill="black"/>
</svg>
